Walking06_kinetics.mot
version=1
nRows=20
nColumns=19
inDegrees=yes
endheader
time	1_ground_force_vx	1_ground_force_vy	1_ground_force_vz	1_ground_force_px	1_ground_force_py	1_ground_force_pz	2_ground_force_vx	2_ground_force_vy	2_ground_force_vz	2_ground_force_px	2_ground_force_py	2_ground_force_pz	1_ground_torque_x	1_ground_torque_y	1_ground_torque_z	2_ground_torque_x	2_ground_torque_y	2_ground_torque_z
  0.49000000	-103.97625833	425.62961076	  0.05017880	  0.28244941	 -0.00048396	 -0.14140529	176.17340225	573.36639668	-21.97844816	 -0.25805366	  0.00241596	 -0.02450056	  0.00044681	 -0.34518230	 -0.00021974	  0.00238518	  1.83025502	  0.00006047
  0.49100000	-106.92411963	432.69869468	 -0.66642297	  0.28319854	 -0.00048278	 -0.14173550	175.97897552	565.88387264	-21.13900663	 -0.25786615	  0.00241572	 -0.02463716	  0.00042216	 -0.32614200	 -0.00020762	  0.00236630	  1.81576913	  0.00005999
  0.49200000	-109.61103147	440.09119762	 -1.49383052	  0.28393296	 -0.00048164	 -0.14203681	175.69368980	558.18300842	-20.28330957	 -0.25767298	  0.00241547	 -0.02477909	  0.00040286	 -0.31122690	 -0.00019813	  0.00234575	  1.79999999	  0.00005947
  0.49300000	-112.12783948	448.29832069	 -2.39463937	  0.28463799	 -0.00048056	 -0.14230039	175.30857891	550.25733630	-19.41584884	 -0.25747126	  0.00241521	 -0.02492760	  0.00039036	 -0.30157218	 -0.00019198	  0.00232359	  1.78299004	  0.00005891
  0.49400000	-114.53987724	457.52914274	 -3.32483173	  0.28530654	 -0.00047955	 -0.14252654	174.81604262	542.10264982	-18.54167833	 -0.25725906	  0.00241494	 -0.02508283	  0.00038561	 -0.29790290	 -0.00018965	  0.00229987	  1.76478849	  0.00005831
  0.49500000	-116.88559805	467.71914294	 -4.23791384	  0.28593620	 -0.00047861	 -0.14271765	174.20898808	533.72325918	-17.66531299	 -0.25703622	  0.00241466	 -0.02524238	  0.00038821	 -0.29990946	 -0.00019092	  0.00227404	  1.74497444	  0.00005765
  0.49600000	-119.17851245	478.58795140	 -5.08789420	  0.28652767	 -0.00047775	 -0.14287539	173.47994594	525.12932049	-16.78989362	 -0.25680385	  0.00241436	 -0.02540238	  0.00039608	 -0.30599186	 -0.00019480	  0.00224499	  1.72268188	  0.00005692
  0.49700000	-121.41175365	489.72050346	 -5.83260589	  0.28708337	 -0.00047695	 -0.14300049	172.62109017	516.33121285	-15.91675376	 -0.25656304	  0.00241405	 -0.02555915	  0.00040567	 -0.31339932	 -0.00019951	  0.00221134	  1.69685845	  0.00005606
  0.49800000	-123.56443076	500.64978307	 -6.43815991	  0.28760562	 -0.00047621	 -0.14309352	171.62561674	507.33578652	-15.04548303	 -0.25631375	  0.00241373	 -0.02571006	  0.00041260	 -0.31875309	 -0.00020292	  0.00217183	  1.66654095	  0.00005506
  0.49900000	-125.60784949	510.92764474	 -6.88294692	  0.28809506	 -0.00047554	 -0.14315582	170.48937223	498.14571473	-14.17436504	 -0.25605435	  0.00241340	 -0.02585354	  0.00041258	 -0.31874040	 -0.00020291	  0.00212562	  1.63108499	  0.00005389
  0.50000000	-127.50945240	520.17321388	 -7.15883720	  0.28855045	 -0.00047493	 -0.14318963	169.21114210	488.76207230	-13.30102850	 -0.25578249	  0.00241305	 -0.02598870	  0.00040221	 -0.31072482	 -0.00019781	  0.00207252	  1.59033474	  0.00005254
  0.50100000	-129.23458800	528.09912156	 -7.26937939	  0.28896979	 -0.00047438	 -0.14319752	167.79141144	479.18894181	-12.42313660	 -0.25549680	  0.00241268	 -0.02611487	  0.00037949	 -0.29317189	 -0.00018663	  0.00201305	  1.54470172	  0.00005104
  0.50200000	-130.74837360	534.52360346	 -7.22659883	  0.28935187	 -0.00047390	 -0.14318253	166.23060006	469.43634515	-11.53873848	 -0.25519759	  0.00241229	 -0.02623124	  0.00034408	 -0.26581734	 -0.00016922	  0.00194837	  1.49506874	  0.00004940
  0.50300000	-132.01909192	539.37330180	 -7.04779195	  0.28969728	 -0.00047347	 -0.14314946	164.52758837	459.51904403	-10.64608150	 -0.25488559	  0.00241189	 -0.02633697	  0.00029710	 -0.22952774	 -0.00014612	  0.00187986	  1.44249768	  0.00004766
  0.50400000	-133.02187676	542.67532756	 -6.75340608	  0.29000875	 -0.00047310	 -0.14310609	162.67889300	449.45345015	 -9.74330985	 -0.25455985	  0.00241147	 -0.02643149	  0.00024068	 -0.18593881	 -0.00011837	  0.00180878	  1.38795531	  0.00004586
  0.50500000	-133.74058328	544.53384203	 -6.36692443	  0.29029078	 -0.00047276	 -0.14306222	160.67868301	439.25611420	 -8.82864744	 -0.25421698	  0.00241102	 -0.02651481	  0.00017731	 -0.13697888	 -0.00008720	  0.00173629	  1.33233553	  0.00004402
  0.50600000	-134.16768079	545.09480136	 -5.91613846	  0.29054875	 -0.00047245	 -0.14302675	158.51946899	428.94412283	 -7.90114712	 -0.25385197	  0.00241055	 -0.02658774	  0.00010921	 -0.08437122	 -0.00005371	  0.00166383	  1.27673230	  0.00004218
  0.50700000	-134.30360992	544.51478001	 -5.43317849	  0.29078795	 -0.00047215	 -0.14300526	156.19274907	418.53503904	 -6.96164028	 -0.25345912	  0.00241004	 -0.02665197	  0.00003793	 -0.02930227	 -0.00001865	  0.00159323	  1.22255433	  0.00004039
  0.50800000	-134.15657467	542.94544014	 -4.95154492	  0.29101289	 -0.00047186	 -0.14299977	153.68906056	408.04502759	 -6.01350645	 -0.25303232	  0.00240949	 -0.02671000	 -0.00003575	  0.02761701	  0.00001758	  0.00152633	  1.17122229	  0.00003870
  0.50900000	-133.74260428	540.53140587	 -4.50166780	  0.29122714	 -0.00047158	 -0.14301018	150.99761880	397.48734699	 -5.06288044	 -0.25256509	  0.00240888	 -0.02676483	 -0.00011157	  0.08619262	  0.00005487	  0.00146443	  1.12372074	  0.00003713
